<?xml version="1.0" encoding="utf-8"?>
<!-- Generator: Adobe Illustrator 26.0.0, SVG Export Plug-In . SVG Version: 6.00 Build 0)  -->
<svg version="1.1" id="Layer_1" xmlns="http://www.w3.org/2000/svg" xmlns:xlink="http://www.w3.org/1999/xlink" x="0px" y="0px"
	 viewBox="0 0 512 512" style="enable-background:new 0 0 512 512;" xml:space="preserve">
<style type="text/css">
	.st0{fill:#FFFFFF;}
</style>
<polygon points="512,512 79.19,512 0,432.81 0,0 432.81,0 512,79.19 "/>
<g>
	<polygon class="st0" points="304.54,236.2 335.19,266.85 335.19,315.39 335.19,354.99 414.39,354.99 414.39,315.39 414.39,236.2 
		335.19,157.01 256,157.01 216.4,157.01 216.4,236.2 256,236.2 	"/>
	<polygon class="st0" points="176.81,354.99 256,354.99 295.6,354.99 295.6,275.8 256,275.8 207.46,275.8 176.81,245.15 
		176.81,196.61 176.81,157.01 97.61,157.01 97.61,196.61 97.61,275.8 	"/>
</g>
</svg>
