<?xml version="1.0" encoding="utf-8"?>
<!-- Generator: Adobe Illustrator 26.0.0, SVG Export Plug-In . SVG Version: 6.00 Build 0)  -->
<svg version="1.1" id="Layer_1" xmlns="http://www.w3.org/2000/svg" xmlns:xlink="http://www.w3.org/1999/xlink" x="0px" y="0px"
	 viewBox="0 0 500 61.7" style="enable-background:new 0 0 500 61.7;" xml:space="preserve">
<style type="text/css">
	.st0{fill:#FFFFFF;}
</style>
<g>
	<g>
		<polygon class="st0" points="64.5,24.7 74.1,34.2 74.1,49.4 74.1,61.7 98.8,61.7 98.8,49.4 98.8,24.7 74.1,0 49.4,0 37,0 37,24.7 
			49.4,24.7 		"/>
		<polygon class="st0" points="24.7,61.7 49.4,61.7 61.7,61.7 61.7,37 49.4,37 34.2,37 24.7,27.5 24.7,12.3 24.7,0 0,0 0,12.3 0,37 
					"/>
	</g>
	<g>
		<path class="st0" d="M161.5,24.4c0,10.7-8.2,15.7-18.1,15.7h-5.9v13.5h-11.1V8.1h17C154.8,8.1,161.5,14.6,161.5,24.4z M150.2,24.4
			c0-3.5-2.5-5.8-6.8-5.8h-5.9v11.6h5.9C147.5,30.2,150.2,28.4,150.2,24.4z"/>
		<path class="st0" d="M209,43.1v10.5h-28.6V8.1h28v10.5h-16.9v7h14.8v9.9h-14.8v7.5H209z"/>
		<path class="st0" d="M254.3,53.6l-7.7-15.2c-0.2,0-0.4,0-0.7,0h-6.4v15.2h-11.1V8.1H246c11.6,0,17.5,6.6,17.5,15.7
			c0,5.5-2.7,9.6-7,12l9.7,17.7H254.3z M239.6,29h6.4c3.3,0,6.2-1.3,6.2-5.2c0-3.4-2.5-5.2-6.2-5.2h-6.4V29z"/>
		<path class="st0" d="M294.8,18.6v8.6h15.3v10.5h-15.3v15.9h-11.1V8.1H312v10.5H294.8z"/>
		<path class="st0" d="M375.5,30.8c0,13.5-9.7,23.6-23.1,23.6c-13.5,0-23.1-10.1-23.1-23.6c0-13.5,9.7-23.5,23.1-23.5
			C365.8,7.3,375.5,17.4,375.5,30.8z M364.3,30.8c0-6.4-4-12.8-12-12.8c-7.9,0-12,6.4-12,12.8c0,6.4,4,12.9,12,12.9
			C360.3,43.7,364.3,37.3,364.3,30.8z"/>
		<path class="st0" d="M420.5,53.6l-7.7-15.2c-0.2,0-0.4,0-0.7,0h-6.4v15.2h-11.1V8.1h17.5c11.6,0,17.5,6.6,17.5,15.7
			c0,5.5-2.7,9.6-7,12l9.7,17.7H420.5z M405.8,29h6.4c3.3,0,6.2-1.3,6.2-5.2c0-3.4-2.5-5.2-6.2-5.2h-6.4V29z"/>
		<path class="st0" d="M500,8.1v45.5h-11.2v-27L477,46.1h-4.1L461,26.5v27h-11.1V8.1h11.7l13.3,22l13.3-22H500z"/>
	</g>
</g>
</svg>
